<?xml version="1.0" encoding="UTF-8" standalone="no"?><svg xmlns="http://www.w3.org/2000/svg" xmlns:xlink="http://www.w3.org/1999/xlink" contentScriptType="application/ecmascript" contentStyleType="text/css" height="184px" preserveAspectRatio="none" style="width:1348px;height:184px;" version="1.1" viewBox="0 0 1348 184" width="1348px" zoomAndPan="magnify"><defs/><g><ellipse cx="895.4975" cy="135.242" fill="#F8F8F8" rx="52.4975" ry="13.242" style="stroke: #383838; stroke-width: 0.5;"/><text fill="#000000" font-family="Tahoma, sans-serif" font-size="12" lengthAdjust="spacingAndGlyphs" textLength="70" x="860.4975" y="138.9842">actionTypes</text><!--entity _AddForm--><rect fill="#F8F8F8" height="34.4844" rx="3" ry="3" style="stroke: #000000; stroke-width: 0.5;" width="70" x="1087" y="15"/><text fill="#000000" font-family="Tahoma, sans-serif" font-size="12" lengthAdjust="spacingAndGlyphs" textLength="50" x="1097" y="37.0059">AddForm</text><ellipse cx="1017.3553" cy="34.242" fill="#F8F8F8" rx="38.3553" ry="13.242" style="stroke: #383838; stroke-width: 0.5;"/><text fill="#000000" font-family="Tahoma, sans-serif" font-size="12" lengthAdjust="spacingAndGlyphs" textLength="50" x="992.3553" y="37.9842">AddForm</text><!--entity _App--><rect fill="#F8F8F8" height="34.4844" rx="3" ry="3" style="stroke: #000000; stroke-width: 0.5;" width="41" x="314" y="76"/><text fill="#000000" font-family="Tahoma, sans-serif" font-size="12" lengthAdjust="spacingAndGlyphs" textLength="21" x="324" y="98.0059">App</text><ellipse cx="200.3492" cy="94.242" fill="#F8F8F8" rx="17.8492" ry="13.242" style="stroke: #383838; stroke-width: 0.5;"/><text fill="#000000" font-family="Tahoma, sans-serif" font-size="12" lengthAdjust="spacingAndGlyphs" textLength="21" x="189.8492" y="97.9842">App</text><!--entity _Button--><rect fill="#F8F8F8" height="34.4844" rx="3" ry="3" style="stroke: #000000; stroke-width: 0.5;" width="58" x="1279" y="8"/><text fill="#000000" font-family="Tahoma, sans-serif" font-size="12" lengthAdjust="spacingAndGlyphs" textLength="38" x="1289" y="30.0059">Button</text><ellipse cx="1217.8701" cy="27.242" fill="#F8F8F8" rx="29.8701" ry="13.242" style="stroke: #383838; stroke-width: 0.5;"/><text fill="#000000" font-family="Tahoma, sans-serif" font-size="12" lengthAdjust="spacingAndGlyphs" textLength="38" x="1198.8701" y="30.9842">Button</text><!--entity _Card--><rect fill="#F8F8F8" height="34.4844" rx="3" ry="3" style="stroke: #000000; stroke-width: 0.5;" width="46" x="1285" y="57"/><text fill="#000000" font-family="Tahoma, sans-serif" font-size="12" lengthAdjust="spacingAndGlyphs" textLength="26" x="1295" y="79.0059">Card</text><ellipse cx="1217.8848" cy="72.242" fill="#F8F8F8" rx="21.3848" ry="13.242" style="stroke: #383838; stroke-width: 0.5;"/><text fill="#000000" font-family="Tahoma, sans-serif" font-size="12" lengthAdjust="spacingAndGlyphs" textLength="26" x="1204.8848" y="75.9842">Card</text><ellipse cx="778.1274" cy="94.242" fill="#F8F8F8" rx="25.6274" ry="13.242" style="stroke: #383838; stroke-width: 0.5;"/><text fill="#000000" font-family="Tahoma, sans-serif" font-size="12" lengthAdjust="spacingAndGlyphs" textLength="32" x="762.1274" y="97.9842">cards</text><ellipse cx="68.7284" cy="52.9457" fill="#F8F8F8" rx="62.7284" ry="14.9457" style="stroke: #383838; stroke-width: 0.5;"/><text fill="#000000" font-family="Tahoma, sans-serif" font-size="12" font-weight="bold" lengthAdjust="spacingAndGlyphs" textLength="95" x="21.2284" y="56.6879">cards_reducer</text><!--entity _Column--><rect fill="#F8F8F8" height="34.4844" rx="3" ry="3" style="stroke: #000000; stroke-width: 0.5;" width="64" x="863.5" y="36"/><text fill="#000000" font-family="Tahoma, sans-serif" font-size="12" lengthAdjust="spacingAndGlyphs" textLength="44" x="873.5" y="58.0059">Column</text><ellipse cx="778.1127" cy="53.242" fill="#F8F8F8" rx="34.1127" ry="13.242" style="stroke: #383838; stroke-width: 0.5;"/><text fill="#000000" font-family="Tahoma, sans-serif" font-size="12" lengthAdjust="spacingAndGlyphs" textLength="44" x="756.1127" y="56.9842">Column</text><ellipse cx="642.0624" cy="94.242" fill="#F8F8F8" rx="39.0624" ry="13.242" style="stroke: #383838; stroke-width: 0.5;"/><text fill="#000000" font-family="Tahoma, sans-serif" font-size="12" lengthAdjust="spacingAndGlyphs" textLength="51" x="616.5624" y="97.9842">Columns</text><ellipse cx="334.7352" cy="140.847" fill="#F8F8F8" rx="64.7352" ry="15.347" style="stroke: #383838; stroke-width: 0.5;"/><text fill="#000000" font-family="Tahoma, sans-serif" font-size="12" lengthAdjust="spacingAndGlyphs" textLength="100" x="284.7352" y="144.5892">columns_reducer</text><ellipse cx="777.9056" cy="135.242" fill="#F8F8F8" rx="33.4056" ry="13.242" style="stroke: #383838; stroke-width: 0.5;"/><text fill="#000000" font-family="Tahoma, sans-serif" font-size="12" lengthAdjust="spacingAndGlyphs" textLength="43" x="756.4056" y="138.9842">colums</text><ellipse cx="517.1838" cy="93.242" fill="#F8F8F8" rx="41.1838" ry="13.242" style="stroke: #383838; stroke-width: 0.5;"/><text fill="#000000" font-family="Tahoma, sans-serif" font-size="12" lengthAdjust="spacingAndGlyphs" textLength="54" x="490.1838" y="96.9842">container</text><ellipse cx="68.7487" cy="96.242" fill="#F8F8F8" rx="27.7487" ry="13.242" style="stroke: #383838; stroke-width: 0.5;"/><text fill="#000000" font-family="Tahoma, sans-serif" font-size="12" font-weight="bold" lengthAdjust="spacingAndGlyphs" textLength="35" x="51.2487" y="99.9842">index</text><ellipse cx="200.3553" cy="138.242" fill="#F8F8F8" rx="38.3553" ry="13.242" style="stroke: #383838; stroke-width: 0.5;"/><text fill="#000000" font-family="Tahoma, sans-serif" font-size="12" lengthAdjust="spacingAndGlyphs" textLength="50" x="175.3553" y="141.9842">reducers</text><ellipse cx="516.771" cy="134.8542" fill="#F8F8F8" rx="54.771" ry="13.3542" style="stroke: #383838; stroke-width: 0.5;"/><text fill="#000000" font-family="Tahoma, sans-serif" font-size="12" lengthAdjust="spacingAndGlyphs" textLength="74" x="479.771" y="138.5964">reorderCards</text><ellipse cx="68.7132" cy="138.242" fill="#F8F8F8" rx="24.2132" ry="13.242" style="stroke: #383838; stroke-width: 0.5;"/><text fill="#000000" font-family="Tahoma, sans-serif" font-size="12" lengthAdjust="spacingAndGlyphs" textLength="30" x="53.7132" y="141.9842">store</text><!--link _AddForm to Button--><path d="M1157.2,30.181 C1165.55,29.737 1174.48,29.262 1182.82,28.818 " fill="none" id="_AddForm-Button" style="stroke: #000000; stroke-width: 0.5;"/><polygon fill="#000000" points="1187.93,28.546,1178.7362,25.0142,1182.9366,28.8032,1179.1476,33.0036,1187.93,28.546" style="stroke: #000000; stroke-width: 0.5;"/><!--link _AddForm to Card--><path d="M1157.2,46.554 C1169.97,51.988 1184.1,58.002 1195.42,62.819 " fill="none" id="_AddForm-Card" style="stroke: #000000; stroke-width: 0.5;"/><polygon fill="#000000" points="1200.09,64.804,1193.3736,57.6005,1195.4889,62.847,1190.2424,64.9623,1200.09,64.804" style="stroke: #000000; stroke-width: 0.5;"/><!--link AddForm to _AddForm--><path d="M1056.09,33.267 C1064.41,33.104 1073.26,32.932 1081.66,32.768 " fill="none" id="AddForm-_AddForm" style="stroke: #000000; stroke-width: 0.5;"/><polygon fill="#000000" points="1086.82,32.667,1077.7418,28.8478,1081.821,32.767,1077.9018,36.8462,1086.82,32.667" style="stroke: #000000; stroke-width: 0.5;"/><!--link _App to container--><path d="M355.16,93 C382.593,93 433.159,93 470.295,93 " fill="none" id="_App-container" style="stroke: #000000; stroke-width: 0.5;"/><polygon fill="#000000" points="475.672,93,466.672,89,470.672,93,466.672,97,475.672,93" style="stroke: #000000; stroke-width: 0.5;"/><!--link App to _App--><path d="M218.757,93.8693 C241.687,93.6956 282.353,93.3875 308.605,93.1886 " fill="none" id="App-_App" style="stroke: #000000; stroke-width: 0.5;"/><polygon fill="#000000" points="313.653,93.1504,304.6224,89.2199,308.6531,93.189,304.6841,97.2197,313.653,93.1504" style="stroke: #000000; stroke-width: 0.5;"/><!--link Button to _Button--><path d="M1248.3,26.334 C1256.42,26.15 1265.29,25.948 1273.62,25.759 " fill="none" id="Button-_Button" style="stroke: #000000; stroke-width: 0.5;"/><polygon fill="#000000" points="1278.72,25.643,1269.6309,21.8498,1273.7213,25.7573,1269.8138,29.8477,1278.72,25.643" style="stroke: #000000; stroke-width: 0.5;"/><!--link Card to _Card--><path d="M1239.85,72.474 C1251.68,72.7428 1266.63,73.0826 1279.42,73.3733 " fill="none" id="Card-_Card" style="stroke: #000000; stroke-width: 0.5;"/><polygon fill="#000000" points="1284.76,73.4945,1275.8538,69.2898,1279.7613,73.3802,1275.6709,77.2878,1284.76,73.4945" style="stroke: #000000; stroke-width: 0.5;"/><!--link cards to actionTypes--><path d="M799.383,101.2356 C816.1,107.1696 840.137,115.7022 859.864,122.7049 " fill="none" id="cards-actionTypes" style="stroke: #000000; stroke-width: 0.5;"/><polygon fill="#000000" points="864.779,124.4498,857.6359,117.6692,860.0671,122.777,854.9594,125.2082,864.779,124.4498" style="stroke: #000000; stroke-width: 0.5;"/><!--link _Column to AddForm--><path d="M927.715,48.058 C942.689,45.687 960.798,42.82 976.745,40.295 " fill="none" id="_Column-AddForm" style="stroke: #000000; stroke-width: 0.5;"/><polygon fill="#000000" points="982.063,39.453,972.5477,36.9114,977.1247,40.2358,973.8002,44.8127,982.063,39.453" style="stroke: #000000; stroke-width: 0.5;"/><!--link _Column to Card--><path d="M927.522,54.839 C990.654,58.582 1133.02,67.022 1191.35,70.479 " fill="none" id="_Column-Card" style="stroke: #000000; stroke-width: 0.5;"/><polygon fill="#000000" points="1196.39,70.778,1187.6333,66.2702,1191.3982,70.4923,1187.1761,74.2572,1196.39,70.778" style="stroke: #000000; stroke-width: 0.5;"/><!--link Column to _Column--><path d="M812.098,53 C826.465,53 843.338,53 858.062,53 " fill="none" id="Column-_Column" style="stroke: #000000; stroke-width: 0.5;"/><polygon fill="#000000" points="863.381,53,854.381,49,858.381,53,854.381,57,863.381,53" style="stroke: #000000; stroke-width: 0.5;"/><!--link Columns to cards--><path d="M681.041,94 C701.976,94 727.581,94 747.076,94 " fill="none" id="Columns-cards" style="stroke: #000000; stroke-width: 0.5;"/><polygon fill="#000000" points="752.403,94,743.403,90,747.403,94,743.403,98,752.403,94" style="stroke: #000000; stroke-width: 0.5;"/><!--link Columns to Column--><path d="M671.418,85.305 C693.274,78.6178 723.438,69.388 745.93,62.506 " fill="none" id="Columns-Column" style="stroke: #000000; stroke-width: 0.5;"/><polygon fill="#000000" points="750.895,60.987,741.1185,59.795,746.1138,62.4498,743.459,67.445,750.895,60.987" style="stroke: #000000; stroke-width: 0.5;"/><!--link Columns to colums--><path d="M671.418,102.695 C693.274,109.3822 723.438,118.6116 745.93,125.4936 " fill="none" id="Columns-colums" style="stroke: #000000; stroke-width: 0.5;"/><polygon fill="#000000" points="750.895,127.0127,743.4591,120.5545,746.1138,125.5498,741.1185,128.2045,750.895,127.0127" style="stroke: #000000; stroke-width: 0.5;"/><!--link columns_reducer to actionTypes--><path d="M378.181,152.5433 C414.534,161.357 468.307,172 516,172 C516,172 516,172 713,172 C764.187,172 821.888,157.6961 858.214,146.8756 " fill="none" id="columns_reducer-actionTypes" style="stroke: #000000; stroke-width: 0.5;"/><polygon fill="#000000" points="863.415,145.3066,853.6432,144.0767,858.6281,146.7508,855.954,151.7357,863.415,145.3066" style="stroke: #000000; stroke-width: 0.5;"/><!--link columns_reducer to reorderCards--><path d="M398.63,138.9015 C417.587,138.2713 438.304,137.5827 456.984,136.9618 " fill="none" id="columns_reducer-reorderCards" style="stroke: #000000; stroke-width: 0.5;"/><polygon fill="#000000" points="462.195,136.7885,453.0674,133.089,457.1977,136.9542,453.3325,141.0846,462.195,136.7885" style="stroke: #000000; stroke-width: 0.5;"/><!--link colums to actionTypes--><path d="M811.789,135 C819.742,135 828.477,135 837.199,135 " fill="none" id="colums-actionTypes" style="stroke: #000000; stroke-width: 0.5;"/><polygon fill="#000000" points="842.62,135,833.62,131,837.62,135,833.62,139,842.62,135" style="stroke: #000000; stroke-width: 0.5;"/><!--link container to Columns--><path d="M558.275,93.3274 C570.893,93.43 584.869,93.5437 597.687,93.6479 " fill="none" id="container-Columns" style="stroke: #000000; stroke-width: 0.5;"/><polygon fill="#000000" points="602.725,93.6888,593.7573,89.6169,597.7252,93.6488,593.6933,97.6167,602.725,93.6888" style="stroke: #000000; stroke-width: 0.5;"/><!--link <b>index</b> to App--><path d="M96.1211,95.5904 C120.053,95.2223 154.8,94.6877 177.275,94.3419 " fill="none" id="&lt;b&gt;index&lt;/b&gt;-App" style="stroke: #000000; stroke-width: 1.0;"/><polygon fill="#000000" points="182.432,94.2626,173.3714,90.4019,177.4326,94.3397,173.4948,98.401,182.432,94.2626" style="stroke: #000000; stroke-width: 1.0;"/><!--link <b>index</b> to store--><path d="M68.5,109.084 C68.5,112.5383 68.5,115.9926 68.5,119.4468 " fill="none" id="&lt;b&gt;index&lt;/b&gt;-store" style="stroke: #000000; stroke-width: 1.0;"/><polygon fill="#000000" points="68.5,124.875,72.5,115.875,68.5,119.875,64.5,115.875,68.5,124.875" style="stroke: #000000; stroke-width: 1.0;"/><!--link reducers to columns_reducer--><path d="M238.973,138.8517 C247.205,139.0387 256.17,139.2425 265.192,139.4475 " fill="none" id="reducers-columns_reducer" style="stroke: #000000; stroke-width: 0.5;"/><polygon fill="#000000" points="270.206,139.5615,261.2986,135.3594,265.2073,139.4486,261.118,143.3573,270.206,139.5615" style="stroke: #000000; stroke-width: 0.5;"/><!--link store to reducers--><path d="M92.7414,138 C110.523,138 135.536,138 156.881,138 " fill="none" id="store-reducers" style="stroke: #000000; stroke-width: 0.5;"/><polygon fill="#000000" points="161.938,138,152.938,134,156.938,138,152.938,142,161.938,138" style="stroke: #000000; stroke-width: 0.5;"/><script type="text/plantuml"><![CDATA[
@startuml

scale max 1920 width
left to right direction

skinparam nodesep 15
skinparam ranksep 31
skinparam monochrome true
skinparam shadowing false
skinparam defaultFontName Tahoma
skinparam defaultFontSize 12
skinparam roundCorner 6
skinparam dpi 150
skinparam arrowColor black
skinparam arrowThickness 0.5
skinparam packageTitleAlignment left

skinparam usecase {
  borderThickness 0.5
}

skinparam rectangle {
  borderThickness 0.5
}

skinparam component {
  borderThickness 1
}


(actionTypes)
rectangle "AddForm" as _AddForm
(AddForm)
rectangle "App" as _App
(App)
rectangle "Button" as _Button
(Button)
rectangle "Card" as _Card
(Card)
(cards)
(<b>cards_reducer</b>)
rectangle "Column" as _Column
(Column)
(Columns)
(columns_reducer)
(colums)
(container)
(<b>index</b>)
(reducers)
(reorderCards)
(store)


_AddForm --> (Button)
_AddForm --> (Card)
(AddForm) --> _AddForm
_App ---> (container)
(App) --> _App
(Button) --> _Button
(Card) --> _Card
(cards) --> (actionTypes)
_Column --> (AddForm)
_Column --> (Card)
(Column) --> _Column
(Columns) ---> (cards)
(Columns) ---> (Column)
(Columns) ---> (colums)
(columns_reducer) --> (actionTypes)
(columns_reducer) ---> (reorderCards)
(colums) --> (actionTypes)
(container) --> (Columns)
(<b>index</b>) --[thickness=1]> (App)
(<b>index</b>) -[thickness=1]> (store)
(reducers) --> (columns_reducer)
(store) --> (reducers)

@enduml


' View and edit on https://arkit.pro
]]></script></g></svg>