<?xml version="1.0" encoding="UTF-8" standalone="no"?><svg xmlns="http://www.w3.org/2000/svg" xmlns:xlink="http://www.w3.org/1999/xlink" contentScriptType="application/ecmascript" contentStyleType="text/css" height="1437px" preserveAspectRatio="none" style="width:698px;height:1437px;" version="1.1" viewBox="0 0 698 1437" width="698px" zoomAndPan="magnify"><defs/><g><!--cluster Dependencies--><path d="M491,24.5 L585,24.5 A4.5,4.5 0 0 1 588,27.5 L595,44.9844 L683,44.9844 A3,3 0 0 1 686,47.9844 L686,914.5 A3,3 0 0 1 683,917.5 L491,917.5 A3,3 0 0 1 488,914.5 L488,27.5 A3,3 0 0 1 491,24.5 " fill="#FFFFFF" style="stroke: #000000; stroke-width: 1.5;"/><line style="stroke: #000000; stroke-width: 1.5;" x1="488" x2="595" y1="44.9844" y2="44.9844"/><text fill="#000000" font-family="Tahoma, sans-serif" font-size="12" font-weight="bold" lengthAdjust="spacingAndGlyphs" textLength="94" x="492" y="38.5059">Dependencies</text><!--entity @babel--><rect fill="#F8F8F8" height="34.4844" rx="3" ry="3" style="stroke: #383838; stroke-width: 1.0;" width="63" x="555.5" y="435.5"/><rect fill="#F8F8F8" height="5" style="stroke: #383838; stroke-width: 1.0;" width="10" x="550.5" y="440.5"/><rect fill="#F8F8F8" height="5" style="stroke: #383838; stroke-width: 1.0;" width="10" x="550.5" y="459.9844"/><text fill="#000000" font-family="Tahoma, sans-serif" font-size="12" lengthAdjust="spacingAndGlyphs" textLength="43" x="565.5" y="457.5059">@babel</text><!--entity @fortawesome--><rect fill="#F8F8F8" height="34.4844" rx="3" ry="3" style="stroke: #383838; stroke-width: 1.0;" width="108" x="533" y="57.5"/><rect fill="#F8F8F8" height="5" style="stroke: #383838; stroke-width: 1.0;" width="10" x="528" y="62.5"/><rect fill="#F8F8F8" height="5" style="stroke: #383838; stroke-width: 1.0;" width="10" x="528" y="81.9844"/><text fill="#000000" font-family="Tahoma, sans-serif" font-size="12" lengthAdjust="spacingAndGlyphs" textLength="88" x="543" y="79.5059">@fortawesome</text><!--entity autoprefixer--><rect fill="#F8F8F8" height="34.4844" rx="3" ry="3" style="stroke: #383838; stroke-width: 1.0;" width="88" x="543" y="111.5"/><rect fill="#F8F8F8" height="5" style="stroke: #383838; stroke-width: 1.0;" width="10" x="538" y="116.5"/><rect fill="#F8F8F8" height="5" style="stroke: #383838; stroke-width: 1.0;" width="10" x="538" y="135.9844"/><text fill="#000000" font-family="Tahoma, sans-serif" font-size="12" lengthAdjust="spacingAndGlyphs" textLength="68" x="553" y="133.5059">autoprefixer</text><!--entity html-webpack-plugin--><rect fill="#F8F8F8" height="34.4844" rx="3" ry="3" style="stroke: #383838; stroke-width: 1.0;" width="139" x="517.5" y="165.5"/><rect fill="#F8F8F8" height="5" style="stroke: #383838; stroke-width: 1.0;" width="10" x="512.5" y="170.5"/><rect fill="#F8F8F8" height="5" style="stroke: #383838; stroke-width: 1.0;" width="10" x="512.5" y="189.9844"/><text fill="#000000" font-family="Tahoma, sans-serif" font-size="12" lengthAdjust="spacingAndGlyphs" textLength="119" x="527.5" y="187.5059">html-webpack-plugin</text><!--entity linaria--><rect fill="#F8F8F8" height="34.4844" rx="3" ry="3" style="stroke: #383838; stroke-width: 1.0;" width="54" x="560" y="543.5"/><rect fill="#F8F8F8" height="5" style="stroke: #383838; stroke-width: 1.0;" width="10" x="555" y="548.5"/><rect fill="#F8F8F8" height="5" style="stroke: #383838; stroke-width: 1.0;" width="10" x="555" y="567.9844"/><text fill="#000000" font-family="Tahoma, sans-serif" font-size="12" lengthAdjust="spacingAndGlyphs" textLength="34" x="570" y="565.5059">linaria</text><!--entity mini-css-extract-plugin--><rect fill="#F8F8F8" height="34.4844" rx="3" ry="3" style="stroke: #383838; stroke-width: 1.0;" width="153" x="510.5" y="219.5"/><rect fill="#F8F8F8" height="5" style="stroke: #383838; stroke-width: 1.0;" width="10" x="505.5" y="224.5"/><rect fill="#F8F8F8" height="5" style="stroke: #383838; stroke-width: 1.0;" width="10" x="505.5" y="243.9844"/><text fill="#000000" font-family="Tahoma, sans-serif" font-size="12" lengthAdjust="spacingAndGlyphs" textLength="133" x="520.5" y="241.5059">mini-css-extract-plugin</text><!--entity prop-types--><rect fill="#F8F8F8" height="34.4844" rx="3" ry="3" style="stroke: #383838; stroke-width: 1.0;" width="82" x="546" y="597.5"/><rect fill="#F8F8F8" height="5" style="stroke: #383838; stroke-width: 1.0;" width="10" x="541" y="602.5"/><rect fill="#F8F8F8" height="5" style="stroke: #383838; stroke-width: 1.0;" width="10" x="541" y="621.9844"/><text fill="#000000" font-family="Tahoma, sans-serif" font-size="12" lengthAdjust="spacingAndGlyphs" textLength="62" x="556" y="619.5059">prop-types</text><!--entity react--><rect fill="#F8F8F8" height="34.4844" rx="3" ry="3" style="stroke: #383838; stroke-width: 1.0;" width="49" x="562.5" y="651.5"/><rect fill="#F8F8F8" height="5" style="stroke: #383838; stroke-width: 1.0;" width="10" x="557.5" y="656.5"/><rect fill="#F8F8F8" height="5" style="stroke: #383838; stroke-width: 1.0;" width="10" x="557.5" y="675.9844"/><text fill="#000000" font-family="Tahoma, sans-serif" font-size="12" lengthAdjust="spacingAndGlyphs" textLength="29" x="572.5" y="673.5059">react</text><!--entity react-beautiful-dnd--><rect fill="#F8F8F8" height="34.4844" rx="3" ry="3" style="stroke: #383838; stroke-width: 1.0;" width="129" x="522.5" y="705.5"/><rect fill="#F8F8F8" height="5" style="stroke: #383838; stroke-width: 1.0;" width="10" x="517.5" y="710.5"/><rect fill="#F8F8F8" height="5" style="stroke: #383838; stroke-width: 1.0;" width="10" x="517.5" y="729.9844"/><text fill="#000000" font-family="Tahoma, sans-serif" font-size="12" lengthAdjust="spacingAndGlyphs" textLength="109" x="532.5" y="727.5059">react-beautiful-dnd</text><!--entity react-dom--><rect fill="#F8F8F8" height="34.4844" rx="3" ry="3" style="stroke: #383838; stroke-width: 1.0;" width="80" x="547" y="759.5"/><rect fill="#F8F8F8" height="5" style="stroke: #383838; stroke-width: 1.0;" width="10" x="542" y="764.5"/><rect fill="#F8F8F8" height="5" style="stroke: #383838; stroke-width: 1.0;" width="10" x="542" y="783.9844"/><text fill="#000000" font-family="Tahoma, sans-serif" font-size="12" lengthAdjust="spacingAndGlyphs" textLength="60" x="557" y="781.5059">react-dom</text><!--entity react-hot-loader--><rect fill="#F8F8F8" height="34.4844" rx="3" ry="3" style="stroke: #383838; stroke-width: 1.0;" width="114" x="530" y="489.5"/><rect fill="#F8F8F8" height="5" style="stroke: #383838; stroke-width: 1.0;" width="10" x="525" y="494.5"/><rect fill="#F8F8F8" height="5" style="stroke: #383838; stroke-width: 1.0;" width="10" x="525" y="513.9844"/><text fill="#000000" font-family="Tahoma, sans-serif" font-size="12" lengthAdjust="spacingAndGlyphs" textLength="94" x="540" y="511.5059">react-hot-loader</text><!--entity react-redux--><rect fill="#F8F8F8" height="34.4844" rx="3" ry="3" style="stroke: #383838; stroke-width: 1.0;" width="85" x="544.5" y="813.5"/><rect fill="#F8F8F8" height="5" style="stroke: #383838; stroke-width: 1.0;" width="10" x="539.5" y="818.5"/><rect fill="#F8F8F8" height="5" style="stroke: #383838; stroke-width: 1.0;" width="10" x="539.5" y="837.9844"/><text fill="#000000" font-family="Tahoma, sans-serif" font-size="12" lengthAdjust="spacingAndGlyphs" textLength="65" x="554.5" y="835.5059">react-redux</text><!--entity redux--><rect fill="#F8F8F8" height="34.4844" rx="3" ry="3" style="stroke: #383838; stroke-width: 1.0;" width="51" x="561.5" y="867.5"/><rect fill="#F8F8F8" height="5" style="stroke: #383838; stroke-width: 1.0;" width="10" x="556.5" y="872.5"/><rect fill="#F8F8F8" height="5" style="stroke: #383838; stroke-width: 1.0;" width="10" x="556.5" y="891.9844"/><text fill="#000000" font-family="Tahoma, sans-serif" font-size="12" lengthAdjust="spacingAndGlyphs" textLength="31" x="571.5" y="889.5059">redux</text><!--entity terser-webpack-plugin--><rect fill="#F8F8F8" height="34.4844" rx="3" ry="3" style="stroke: #383838; stroke-width: 1.0;" width="147" x="513.5" y="273.5"/><rect fill="#F8F8F8" height="5" style="stroke: #383838; stroke-width: 1.0;" width="10" x="508.5" y="278.5"/><rect fill="#F8F8F8" height="5" style="stroke: #383838; stroke-width: 1.0;" width="10" x="508.5" y="297.9844"/><text fill="#000000" font-family="Tahoma, sans-serif" font-size="12" lengthAdjust="spacingAndGlyphs" textLength="127" x="523.5" y="295.5059">terser-webpack-plugin</text><!--entity webpack--><rect fill="#F8F8F8" height="34.4844" rx="3" ry="3" style="stroke: #383838; stroke-width: 1.0;" width="70" x="552" y="327.5"/><rect fill="#F8F8F8" height="5" style="stroke: #383838; stroke-width: 1.0;" width="10" x="547" y="332.5"/><rect fill="#F8F8F8" height="5" style="stroke: #383838; stroke-width: 1.0;" width="10" x="547" y="351.9844"/><text fill="#000000" font-family="Tahoma, sans-serif" font-size="12" lengthAdjust="spacingAndGlyphs" textLength="50" x="562" y="349.5059">webpack</text><!--entity webpack-bundle-analyzer--><rect fill="#F8F8F8" height="34.4844" rx="3" ry="3" style="stroke: #383838; stroke-width: 1.0;" width="166" x="504" y="381.5"/><rect fill="#F8F8F8" height="5" style="stroke: #383838; stroke-width: 1.0;" width="10" x="499" y="386.5"/><rect fill="#F8F8F8" height="5" style="stroke: #383838; stroke-width: 1.0;" width="10" x="499" y="405.9844"/><text fill="#000000" font-family="Tahoma, sans-serif" font-size="12" lengthAdjust="spacingAndGlyphs" textLength="146" x="514" y="403.5059">webpack-bundle-analyzer</text><ellipse cx="586.9975" cy="1243.742" fill="#F8F8F8" rx="52.4975" ry="13.242" style="stroke: #383838; stroke-width: 0.5;"/><text fill="#000000" font-family="Tahoma, sans-serif" font-size="12" lengthAdjust="spacingAndGlyphs" textLength="70" x="551.9975" y="1247.4842">actionTypes</text><!--entity _AddForm--><rect fill="#F8F8F8" height="34.4844" rx="3" ry="3" style="stroke: #000000; stroke-width: 0.5;" width="70" x="105.5" y="359.5"/><text fill="#000000" font-family="Tahoma, sans-serif" font-size="12" lengthAdjust="spacingAndGlyphs" textLength="50" x="115.5" y="381.5059">AddForm</text><ellipse cx="140.3051" cy="326.742" fill="#F8F8F8" rx="43.3051" ry="13.242" style="stroke: #383838; stroke-width: 0.5;"/><text fill="#000000" font-family="Tahoma, sans-serif" font-size="12" font-weight="bold" lengthAdjust="spacingAndGlyphs" textLength="57" x="111.8051" y="330.4842">AddForm</text><!--entity _App--><rect fill="#F8F8F8" height="34.4844" rx="3" ry="3" style="stroke: #000000; stroke-width: 0.5;" width="41" x="120" y="212.5"/><text fill="#000000" font-family="Tahoma, sans-serif" font-size="12" lengthAdjust="spacingAndGlyphs" textLength="21" x="130" y="234.5059">App</text><ellipse cx="140.4706" cy="179.742" fill="#F8F8F8" rx="19.9706" ry="13.242" style="stroke: #383838; stroke-width: 0.5;"/><text fill="#000000" font-family="Tahoma, sans-serif" font-size="12" font-weight="bold" lengthAdjust="spacingAndGlyphs" textLength="24" x="128.4706" y="183.4842">App</text><ellipse cx="399.2013" cy="184.4403" fill="#F8F8F8" rx="57.7013" ry="13.9403" style="stroke: #383838; stroke-width: 0.5;"/><text fill="#000000" font-family="Tahoma, sans-serif" font-size="12" font-weight="bold" lengthAdjust="spacingAndGlyphs" textLength="82" x="358.2013" y="188.1824">babel.config</text><!--entity _Button--><rect fill="#F8F8F8" height="34.4844" rx="3" ry="3" style="stroke: #000000; stroke-width: 0.5;" width="58" x="111.5" y="590.5"/><text fill="#000000" font-family="Tahoma, sans-serif" font-size="12" lengthAdjust="spacingAndGlyphs" textLength="38" x="121.5" y="612.5059">Button</text><ellipse cx="140.6127" cy="557.742" fill="#F8F8F8" rx="34.1127" ry="13.242" style="stroke: #383838; stroke-width: 0.5;"/><text fill="#000000" font-family="Tahoma, sans-serif" font-size="12" font-weight="bold" lengthAdjust="spacingAndGlyphs" textLength="44" x="118.6127" y="561.4842">Button</text><!--entity _Card--><rect fill="#F8F8F8" height="34.4844" rx="3" ry="3" style="stroke: #000000; stroke-width: 0.5;" width="46" x="117.5" y="793.5"/><text fill="#000000" font-family="Tahoma, sans-serif" font-size="12" lengthAdjust="spacingAndGlyphs" textLength="26" x="127.5" y="815.5059">Card</text><ellipse cx="140.7132" cy="760.742" fill="#F8F8F8" rx="24.2132" ry="13.242" style="stroke: #383838; stroke-width: 0.5;"/><text fill="#000000" font-family="Tahoma, sans-serif" font-size="12" font-weight="bold" lengthAdjust="spacingAndGlyphs" textLength="30" x="125.7132" y="764.4842">Card</text><ellipse cx="399.1274" cy="1197.742" fill="#F8F8F8" rx="25.6274" ry="13.242" style="stroke: #383838; stroke-width: 0.5;"/><text fill="#000000" font-family="Tahoma, sans-serif" font-size="12" lengthAdjust="spacingAndGlyphs" textLength="32" x="383.1274" y="1201.4842">cards</text><!--entity _Column--><rect fill="#F8F8F8" height="34.4844" rx="3" ry="3" style="stroke: #000000; stroke-width: 0.5;" width="64" x="108.5" y="691.5"/><text fill="#000000" font-family="Tahoma, sans-serif" font-size="12" lengthAdjust="spacingAndGlyphs" textLength="44" x="118.5" y="713.5059">Column</text><ellipse cx="140.3553" cy="658.742" fill="#F8F8F8" rx="38.3553" ry="13.242" style="stroke: #383838; stroke-width: 0.5;"/><text fill="#000000" font-family="Tahoma, sans-serif" font-size="12" font-weight="bold" lengthAdjust="spacingAndGlyphs" textLength="50" x="115.3553" y="662.4842">Column</text><ellipse cx="140.5624" cy="1159.742" fill="#F8F8F8" rx="39.0624" ry="13.242" style="stroke: #383838; stroke-width: 0.5;"/><text fill="#000000" font-family="Tahoma, sans-serif" font-size="12" lengthAdjust="spacingAndGlyphs" textLength="51" x="115.0624" y="1163.4842">Columns</text><ellipse cx="398.9056" cy="1243.742" fill="#F8F8F8" rx="33.4056" ry="13.242" style="stroke: #383838; stroke-width: 0.5;"/><text fill="#000000" font-family="Tahoma, sans-serif" font-size="12" lengthAdjust="spacingAndGlyphs" textLength="43" x="377.4056" y="1247.4842">colums</text><ellipse cx="140.5477" cy="1113.742" fill="#F8F8F8" rx="47.5477" ry="13.242" style="stroke: #383838; stroke-width: 0.5;"/><text fill="#000000" font-family="Tahoma, sans-serif" font-size="12" font-weight="bold" lengthAdjust="spacingAndGlyphs" textLength="63" x="109.0477" y="1117.4842">container</text><ellipse cx="260.4056" cy="1373.742" fill="#F8F8F8" rx="33.4056" ry="13.242" style="stroke: #383838; stroke-width: 0.5;"/><text fill="#000000" font-family="Tahoma, sans-serif" font-size="12" lengthAdjust="spacingAndGlyphs" textLength="43" x="238.9056" y="1377.4842">reducer</text><ellipse cx="140.3553" cy="1331.742" fill="#F8F8F8" rx="38.3553" ry="13.242" style="stroke: #383838; stroke-width: 0.5;"/><text fill="#000000" font-family="Tahoma, sans-serif" font-size="12" lengthAdjust="spacingAndGlyphs" textLength="50" x="115.3553" y="1335.4842">reducers</text><ellipse cx="586.771" cy="1413.3542" fill="#F8F8F8" rx="54.771" ry="13.3542" style="stroke: #383838; stroke-width: 0.5;"/><text fill="#000000" font-family="Tahoma, sans-serif" font-size="12" lengthAdjust="spacingAndGlyphs" textLength="74" x="549.771" y="1417.0964">reorderCards</text><ellipse cx="29.8492" cy="1048.742" fill="#F8F8F8" rx="17.8492" ry="13.242" style="stroke: #383838; stroke-width: 0.5;"/><text fill="#000000" font-family="Tahoma, sans-serif" font-size="12" font-weight="bold" lengthAdjust="spacingAndGlyphs" textLength="21" x="19.3492" y="1052.4842">src</text><ellipse cx="30.2132" cy="1287.742" fill="#F8F8F8" rx="24.2132" ry="13.242" style="stroke: #383838; stroke-width: 0.5;"/><text fill="#000000" font-family="Tahoma, sans-serif" font-size="12" lengthAdjust="spacingAndGlyphs" textLength="30" x="15.2132" y="1291.4842">store</text><ellipse cx="398.9562" cy="134.5912" fill="#F8F8F8" rx="65.9562" ry="15.5912" style="stroke: #383838; stroke-width: 0.5;"/><text fill="#000000" font-family="Tahoma, sans-serif" font-size="12" font-weight="bold" lengthAdjust="spacingAndGlyphs" textLength="103" x="347.4562" y="138.3334">webpack.config</text><!--link _AddForm to @fortawesome--><path d="M175.95,359.2 C180.257,356.28 184.405,353.03 188,349.5 C276.885,262.15 228.921,178.05 333,109.5 C391.117,71.22 473.06,66.72 527.774,68.97 " fill="none" id="_AddForm-@fortawesome" style="stroke: #000000; stroke-width: 0.5;"/><polygon fill="#000000" points="532.983,69.21,524.1751,64.8032,527.9882,68.9817,523.8097,72.7948,532.983,69.21" style="stroke: #000000; stroke-width: 0.5;"/><!--link _AddForm to linaria--><path d="M175.631,364.09 C241.127,342.7 385.026,307.9 465,381.5 C489.975,404.49 457.879,507.757 480,533.5 C498.257,554.746 530.667,560.472 554.859,561.51 " fill="none" id="_AddForm-linaria" style="stroke: #000000; stroke-width: 0.5;"/><polygon fill="#000000" points="559.889,561.664,551.0155,557.3907,554.8913,561.5111,550.7709,565.387,559.889,561.664" style="stroke: #000000; stroke-width: 0.5;"/><!--link _AddForm to prop-types--><path d="M175.523,386.02 C240.514,405.87 383.12,457.606 465,549.5 C477.079,563.056 466.375,575.499 480,587.5 C496.618,602.138 520.093,609.043 540.728,612.222 " fill="none" id="_AddForm-prop-types" style="stroke: #000000; stroke-width: 0.5;"/><polygon fill="#000000" points="545.907,612.952,537.5541,607.7339,540.956,612.2535,536.4365,615.6555,545.907,612.952" style="stroke: #000000; stroke-width: 0.5;"/><!--link _AddForm to react--><path d="M157.83,393.68 C189.605,426.56 262.8,499.624 333,550.5 C387.636,590.096 411.993,583.749 465,625.5 C472.657,631.531 471.607,636.543 480,641.5 C503.766,655.538 534.715,662.339 557.029,665.596 " fill="none" id="_AddForm-react" style="stroke: #000000; stroke-width: 0.5;"/><polygon fill="#000000" points="562.221,666.312,553.8517,661.1203,557.2679,665.6291,552.759,669.0453,562.221,666.312" style="stroke: #000000; stroke-width: 0.5;"/><!--link <b>AddForm</b> to _AddForm--><path d="M140.5,339.57 C140.5,344.41 140.5,349.24 140.5,354.07 " fill="none" id="&lt;b&gt;AddForm&lt;/b&gt;-_AddForm" style="stroke: #000000; stroke-width: 1.0;"/><polygon fill="#000000" points="140.5,359.31,144.5,350.31,140.5,354.31,136.5,350.31,140.5,359.31" style="stroke: #000000; stroke-width: 1.0;"/><!--link _App to linaria--><path d="M161.281,229.54 C219.103,230.84 388.561,243.31 465,342.5 C490.988,376.22 452.576,500.933 480,533.5 C498.043,554.927 530.486,560.626 554.744,561.608 " fill="none" id="_App-linaria" style="stroke: #000000; stroke-width: 0.5;"/><polygon fill="#000000" points="559.788,561.749,550.9047,557.4961,554.79,561.6076,550.6785,565.4929,559.788,561.749" style="stroke: #000000; stroke-width: 0.5;"/><!--link _App to react--><path d="M161.34,243.95 C218.592,286.78 385.083,419.61 465,571.5 C479.815,599.658 457.937,618.575 480,641.5 C499.833,662.108 533.018,667.813 556.981,669.018 " fill="none" id="_App-react" style="stroke: #000000; stroke-width: 0.5;"/><polygon fill="#000000" points="562.249,669.218,553.4087,664.8764,557.2527,669.0266,553.1025,672.8706,562.249,669.218" style="stroke: #000000; stroke-width: 0.5;"/><!--link _App to react-hot-loader--><path d="M161.051,224.77 C178.287,220.86 204.144,215.62 227,213.5 C280.477,208.54 430.467,214.37 465,255.5 C497.079,293.71 448.085,441.154 480,479.5 C491.12,492.86 507.838,500.118 524.731,503.93 " fill="none" id="_App-react-hot-loader" style="stroke: #000000; stroke-width: 0.5;"/><polygon fill="#000000" points="529.973,505.005,521.9597,499.279,525.0749,504.0008,520.353,507.1159,529.973,505.005" style="stroke: #000000; stroke-width: 0.5;"/><!--link <b>App</b> to _App--><path d="M140.5,192.57 C140.5,197.41 140.5,202.24 140.5,207.07 " fill="none" id="&lt;b&gt;App&lt;/b&gt;-_App" style="stroke: #000000; stroke-width: 1.0;"/><polygon fill="#000000" points="140.5,212.31,144.5,203.31,140.5,207.31,136.5,203.31,140.5,212.31" style="stroke: #000000; stroke-width: 1.0;"/><!--link <b>babel.config</b> to @babel--><path d="M439.858,194.36 C449.569,198.67 458.904,204.8 465,213.5 C492.09,252.19 449.719,389.26 480,425.5 C496.866,445.688 526.516,451.933 550.177,453.415 " fill="none" id="&lt;b&gt;babel.config&lt;/b&gt;-@babel" style="stroke: #000000; stroke-width: 1.0;"/><polygon fill="#000000" points="555.434,453.673,546.6414,449.2356,550.44,453.4273,546.2483,457.2259,555.434,453.673" style="stroke: #000000; stroke-width: 1.0;"/><!--link <b>babel.config</b> to react-hot-loader--><path d="M440.279,194.46 C449.868,198.75 459.037,204.85 465,213.5 C498.612,262.24 442.366,433.795 480,479.5 C491.049,492.919 507.748,500.193 524.644,504.002 " fill="none" id="&lt;b&gt;babel.config&lt;/b&gt;-react-hot-loader" style="stroke: #000000; stroke-width: 1.0;"/><polygon fill="#000000" points="529.888,505.076,521.8731,499.3522,524.9896,504.0732,520.2686,507.1896,529.888,505.076" style="stroke: #000000; stroke-width: 1.0;"/><!--link _Button to linaria--><path d="M169.541,595.531 C176.32,591.561 183.034,586.568 188,580.5 C222.181,538.733 183.135,496.943 227,465.5 C312.972,403.87 382.54,399.25 465,465.5 C489.126,484.884 458.472,511.265 480,533.5 C499.158,553.287 530.63,559.32 554.315,560.832 " fill="none" id="_Button-linaria" style="stroke: #000000; stroke-width: 0.5;"/><polygon fill="#000000" points="559.546,561.102,550.7636,556.6444,554.5526,560.8448,550.3522,564.6338,559.546,561.102" style="stroke: #000000; stroke-width: 0.5;"/><!--link _Button to prop-types--><path d="M169.643,607.943 C244.562,609.123 449.374,612.348 540.84,613.789 " fill="none" id="_Button-prop-types" style="stroke: #000000; stroke-width: 0.5;"/><polygon fill="#000000" points="545.905,613.869,536.969,609.7281,540.9056,613.7904,536.8433,617.7271,545.905,613.869" style="stroke: #000000; stroke-width: 0.5;"/><!--link _Button to react--><path d="M169.643,611.362 C249.474,622.318 476.787,653.512 557.3,664.561 " fill="none" id="_Button-react" style="stroke: #000000; stroke-width: 0.5;"/><polygon fill="#000000" points="562.388,665.26,554.0155,660.0733,557.4344,664.5801,552.9277,667.999,562.388,665.26" style="stroke: #000000; stroke-width: 0.5;"/><!--link <b>Button</b> to _Button--><path d="M140.5,570.574 C140.5,575.406 140.5,580.238 140.5,585.069 " fill="none" id="&lt;b&gt;Button&lt;/b&gt;-_Button" style="stroke: #000000; stroke-width: 1.0;"/><polygon fill="#000000" points="140.5,590.312,144.5,581.312,140.5,585.312,136.5,581.312,140.5,590.312" style="stroke: #000000; stroke-width: 1.0;"/><!--link _Card to linaria--><path d="M163.543,799.246 C171.538,794.771 180.453,789.306 188,783.5 C207.429,768.553 208.009,760 227,744.5 C329.524,660.824 357.698,638.045 480,587.5 C504.21,577.495 533.105,570.432 554.608,566.047 " fill="none" id="_Card-linaria" style="stroke: #000000; stroke-width: 0.5;"/><polygon fill="#000000" points="559.631,565.043,550.0216,562.8846,554.728,566.023,551.5896,570.7295,559.631,565.043" style="stroke: #000000; stroke-width: 0.5;"/><!--link _Card to prop-types--><path d="M163.757,802.152 C217.793,781.39 359.243,724.047 465,654.5 C472.371,649.653 472.182,645.588 480,641.5 C498.69,631.728 521.113,625.353 540.513,621.267 " fill="none" id="_Card-prop-types" style="stroke: #000000; stroke-width: 0.5;"/><polygon fill="#000000" points="545.899,620.174,536.2833,618.0437,540.9989,621.1683,537.8742,625.8839,545.899,620.174" style="stroke: #000000; stroke-width: 0.5;"/><!--link _Card to react--><path d="M163.91,816.888 C222.106,831.975 379.444,862.936 465,784.5 C494.568,757.392 452.829,725.009 480,695.5 C499.575,674.241 533.333,668.715 557.496,667.731 " fill="none" id="_Card-react" style="stroke: #000000; stroke-width: 0.5;"/><polygon fill="#000000" points="562.498,667.585,553.3853,663.8489,557.5001,667.7307,553.6184,671.8456,562.498,667.585" style="stroke: #000000; stroke-width: 0.5;"/><!--link _Card to react-beautiful-dnd--><path d="M149.229,827.867 C161.533,853.081 188.214,898.845 227,917.5 C253.835,930.407 264.932,923.963 294,917.5 C375.906,899.288 414.153,904.244 465,837.5 C489.043,805.94 453.098,778.662 480,749.5 C489.805,738.871 503.156,732.176 517.076,728.016 " fill="none" id="_Card-react-beautiful-dnd" style="stroke: #000000; stroke-width: 0.5;"/><polygon fill="#000000" points="522.224,726.595,512.4843,725.133,517.4041,727.925,514.6122,732.8448,522.224,726.595" style="stroke: #000000; stroke-width: 0.5;"/><!--link <b>Card</b> to _Card--><path d="M140.5,773.574 C140.5,778.406 140.5,783.238 140.5,788.069 " fill="none" id="&lt;b&gt;Card&lt;/b&gt;-_Card" style="stroke: #000000; stroke-width: 1.0;"/><polygon fill="#000000" points="140.5,793.312,144.5,784.312,140.5,788.312,136.5,784.312,140.5,793.312" style="stroke: #000000; stroke-width: 1.0;"/><!--link cards to actionTypes--><path d="M422.436,1203.049 C452.489,1210.481 506.39,1223.812 544.074,1233.131 " fill="none" id="cards-actionTypes" style="stroke: #000000; stroke-width: 0.5;"/><polygon fill="#000000" points="549.048,1234.361,541.2726,1228.3159,544.1944,1233.1598,539.3506,1236.0816,549.048,1234.361" style="stroke: #000000; stroke-width: 0.5;"/><!--link _Column to linaria--><path d="M172.875,695.107 C178.609,691.428 184.026,686.921 188,681.5 C234.858,617.584 165.135,557.034 227,507.5 C268.286,474.444 419.201,481.048 465,507.5 C476.552,514.172 469.367,525.443 480,533.5 C501.529,549.814 531.859,556.335 554.563,558.908 " fill="none" id="_Column-linaria" style="stroke: #000000; stroke-width: 0.5;"/><polygon fill="#000000" points="559.576,559.427,551.0352,554.5224,554.6025,558.9127,550.2123,562.48,559.576,559.427" style="stroke: #000000; stroke-width: 0.5;"/><!--link _Column to prop-types--><path d="M172.665,694.741 C188.653,688.129 208.59,680.562 227,675.5 C337.651,645.076 471.88,627.128 540.618,619.26 " fill="none" id="_Column-prop-types" style="stroke: #000000; stroke-width: 0.5;"/><polygon fill="#000000" points="545.856,618.665,536.4621,615.7062,540.8879,619.2292,537.3649,623.6551,545.856,618.665" style="stroke: #000000; stroke-width: 0.5;"/><!--link _Column to react--><path d="M172.4,725.509 C234.689,757.245 376.886,816.474 465,749.5 C484.831,734.427 462.198,712.922 480,695.5 C500.315,675.618 533.111,669.755 556.848,668.315 " fill="none" id="_Column-react" style="stroke: #000000; stroke-width: 0.5;"/><polygon fill="#000000" points="562.069,668.06,552.8843,664.5045,557.075,668.3043,553.2752,672.4949,562.069,668.06" style="stroke: #000000; stroke-width: 0.5;"/><!--link _Column to react-beautiful-dnd--><path d="M172.739,725.627 C178.099,729.209 183.412,733.213 188,737.5 C209.632,757.712 200.641,778.022 227,791.5 C321.181,839.656 378.536,852.433 465,791.5 C481.202,780.082 465.344,762.845 480,749.5 C490.442,739.992 503.763,733.73 517.409,729.629 " fill="none" id="_Column-react-beautiful-dnd" style="stroke: #000000; stroke-width: 0.5;"/><polygon fill="#000000" points="522.446,728.215,512.6999,726.7962,517.6321,729.5663,514.862,734.4985,522.446,728.215" style="stroke: #000000; stroke-width: 0.5;"/><!--link <b>Column</b> to _Column--><path d="M140.5,671.574 C140.5,676.406 140.5,681.238 140.5,686.069 " fill="none" id="&lt;b&gt;Column&lt;/b&gt;-_Column" style="stroke: #000000; stroke-width: 1.0;"/><polygon fill="#000000" points="140.5,691.312,144.5,682.312,140.5,686.312,136.5,682.312,140.5,691.312" style="stroke: #000000; stroke-width: 1.0;"/><!--link Columns to cards--><path d="M176.36,1164.664 C227.506,1172.242 321.933,1186.231 369.31,1193.25 " fill="none" id="Columns-cards" style="stroke: #000000; stroke-width: 0.5;"/><polygon fill="#000000" points="374.297,1193.988,365.9805,1188.712,369.351,1193.2551,364.8079,1196.6256,374.297,1193.988" style="stroke: #000000; stroke-width: 0.5;"/><!--link Columns to colums--><path d="M168.95,1168.489 C217.305,1184.325 317.304,1217.073 367.645,1233.559 " fill="none" id="Columns-colums" style="stroke: #000000; stroke-width: 0.5;"/><polygon fill="#000000" points="372.652,1235.199,365.3435,1228.5971,367.9002,1233.6432,362.8541,1236.1999,372.652,1235.199" style="stroke: #000000; stroke-width: 0.5;"/><!--link Columns to react--><path d="M166.121,1149.374 C173.483,1145.816 181.357,1141.452 188,1136.5 C332.972,1028.422 390.161,1003.112 465,838.5 C478.224,809.413 459.101,719.67 480,695.5 C498.902,673.64 532.787,668.228 557.164,667.434 " fill="none" id="Columns-react" style="stroke: #000000; stroke-width: 0.5;"/><polygon fill="#000000" points="562.212,667.33,553.1316,663.5159,557.2131,667.4328,553.2962,671.5143,562.212,667.33" style="stroke: #000000; stroke-width: 0.5;"/><!--link Columns to react-beautiful-dnd--><path d="M176.334,1154.137 C245.083,1141.505 397.396,1102.915 465,1001.5 C496.116,954.821 444.273,792.751 480,749.5 C489.508,737.99 503.172,731.003 517.543,726.847 " fill="none" id="Columns-react-beautiful-dnd" style="stroke: #000000; stroke-width: 0.5;"/><polygon fill="#000000" points="522.439,725.543,512.7127,723.994,517.6074,726.8298,514.7716,731.7245,522.439,725.543" style="stroke: #000000; stroke-width: 0.5;"/><!--link Columns to react-redux--><path d="M179.001,1161.582 C255.706,1164.955 426.548,1167.646 465,1127.5 C506.566,1084.102 441.821,903.906 480,857.5 C494.241,840.19 517.885,833.102 539.233,830.491 " fill="none" id="Columns-react-redux" style="stroke: #000000; stroke-width: 0.5;"/><polygon fill="#000000" points="544.317,829.946,534.942,826.9279,539.3455,830.4789,535.7946,834.8824,544.317,829.946" style="stroke: #000000; stroke-width: 0.5;"/><!--link colums to actionTypes--><path d="M432.825,1243.5 C459.455,1243.5 497.62,1243.5 529.192,1243.5 " fill="none" id="colums-actionTypes" style="stroke: #000000; stroke-width: 0.5;"/><polygon fill="#000000" points="534.199,1243.5,525.199,1239.5,529.199,1243.5,525.199,1247.5,534.199,1243.5" style="stroke: #000000; stroke-width: 0.5;"/><!--link <b>container</b> to Columns--><path d="M140.5,1126.53 C140.5,1131.346 140.5,1136.162 140.5,1140.977 " fill="none" id="&lt;b&gt;container&lt;/b&gt;-Columns" style="stroke: #000000; stroke-width: 1.0;"/><polygon fill="#000000" points="140.5,1146.203,144.5,1137.203,140.5,1141.203,136.5,1137.203,140.5,1146.203" style="stroke: #000000; stroke-width: 1.0;"/><!--link reducer to actionTypes--><path d="M294.027,1374.4867 C335.513,1374.5477 408.63,1370.5767 465,1345.5 C509.85,1325.548 551.034,1283.764 571.823,1260.339 " fill="none" id="reducer-actionTypes" style="stroke: #000000; stroke-width: 0.5;"/><polygon fill="#000000" points="575.223,1256.466,566.2793,1260.5903,571.9242,1260.2234,572.2911,1265.8683,575.223,1256.466" style="stroke: #000000; stroke-width: 0.5;"/><!--link reducer to reorderCards--><path d="M290.272,1379.7534 C303.275,1382.4194 318.863,1385.394 333,1387.5 C399.923,1397.4696 477.379,1404.8198 528.779,1409.1143 " fill="none" id="reducer-reorderCards" style="stroke: #000000; stroke-width: 0.5;"/><polygon fill="#000000" points="533.981,1409.5459,525.3434,1404.8139,528.9982,1409.1316,524.6805,1412.7864,533.981,1409.5459" style="stroke: #000000; stroke-width: 0.5;"/><!--link reducers to reducer--><path d="M167.688,1340.8212 C186.216,1347.4158 211.073,1356.2633 230.251,1363.0892 " fill="none" id="reducers-reducer" style="stroke: #000000; stroke-width: 0.5;"/><polygon fill="#000000" points="234.997,1364.7785,227.8601,1357.9914,230.2867,1363.1014,225.1767,1365.528,234.997,1364.7785" style="stroke: #000000; stroke-width: 0.5;"/><!--link reducers to redux--><path d="M178.59,1333.6846 C254.515,1337.3235 423.964,1340.9076 465,1303.5 C492.704,1278.246 471.01,1256.892 480,1220.5 C509.702,1100.27 558.726,960.046 577.93,906.66 " fill="none" id="reducers-redux" style="stroke: #000000; stroke-width: 0.5;"/><polygon fill="#000000" points="579.694,901.768,572.8791,908.8783,577.9985,906.4717,580.4051,911.5912,579.694,901.768" style="stroke: #000000; stroke-width: 0.5;"/><!--link <b>src</b> to react--><path d="M44.3465,1040.484 C116.972,996.851 461.459,789.724 465,784.5 C487.505,751.294 452.829,725.009 480,695.5 C499.575,674.241 533.333,668.715 557.496,667.731 " fill="none" id="&lt;b&gt;src&lt;/b&gt;-react" style="stroke: #000000; stroke-width: 1.0;"/><polygon fill="#000000" points="562.498,667.585,553.3853,663.8489,557.5001,667.7307,553.6184,671.8456,562.498,667.585" style="stroke: #000000; stroke-width: 1.0;"/><!--link <b>src</b> to react-dom--><path d="M47.9423,1045.696 C121.025,1033.253 408.16,980.658 465,913.5 C496.876,875.837 447.153,840.319 480,803.5 C495.391,786.249 520.115,779.299 541.815,776.754 " fill="none" id="&lt;b&gt;src&lt;/b&gt;-react-dom" style="stroke: #000000; stroke-width: 1.0;"/><polygon fill="#000000" points="546.969,776.224,537.6071,773.1655,541.9952,776.7354,538.4253,781.1235,546.969,776.224" style="stroke: #000000; stroke-width: 1.0;"/><!--link <b>src</b> to react-redux--><path d="M47.7139,1051.13 C119.844,1062.073 403.578,1100.826 465,1043.5 C495.315,1015.206 453.256,889.191 480,857.5 C494.456,840.369 518.117,833.295 539.42,830.647 " fill="none" id="&lt;b&gt;src&lt;/b&gt;-react-redux" style="stroke: #000000; stroke-width: 1.0;"/><polygon fill="#000000" points="544.493,830.092,535.111,827.0955,539.5227,830.6363,535.9819,835.048,544.493,830.092" style="stroke: #000000; stroke-width: 1.0;"/><!--link <b>src</b> to store--><path d="M30,1061.738 C30,1130.835 30,1199.932 30,1269.029 " fill="none" id="&lt;b&gt;src&lt;/b&gt;-store" style="stroke: #000000; stroke-width: 1.0;"/><polygon fill="#000000" points="30,1274.43,34,1265.43,30,1269.43,26,1265.43,30,1274.43" style="stroke: #000000; stroke-width: 1.0;"/><!--link store to reducers--><path d="M49.8993,1295.164 C66.5787,1301.928 91.1549,1311.895 110.352,1319.679 " fill="none" id="store-reducers" style="stroke: #000000; stroke-width: 0.5;"/><polygon fill="#000000" points="115.108,1321.608,108.2707,1314.5192,110.4744,1319.7291,105.2645,1321.9329,115.108,1321.608" style="stroke: #000000; stroke-width: 0.5;"/><!--link store to redux--><path d="M53.9099,1289.688 C134.017,1296.849 400.225,1316.378 465,1266.5 C465.94,1265.776 553.19,988.744 578.929,906.969 " fill="none" id="store-redux" style="stroke: #000000; stroke-width: 0.5;"/><polygon fill="#000000" points="580.534,901.87,574.0157,909.2532,579.0324,906.6392,581.6464,911.6558,580.534,901.87" style="stroke: #000000; stroke-width: 0.5;"/><!--link <b>webpack.config</b> to autoprefixer--><path d="M464.532,132.42 C488.525,131.64 515.315,130.78 537.619,130.06 " fill="none" id="&lt;b&gt;webpack.config&lt;/b&gt;-autoprefixer" style="stroke: #000000; stroke-width: 1.0;"/><polygon fill="#000000" points="542.892,129.89,533.7687,126.1799,537.8946,130.0499,534.0245,134.1758,542.892,129.89" style="stroke: #000000; stroke-width: 1.0;"/><!--link <b>webpack.config</b> to html-webpack-plugin--><path d="M443.581,146 C455.394,149.1 468.183,152.44 480,155.5 C490.842,158.3 502.313,161.25 513.549,164.12 " fill="none" id="&lt;b&gt;webpack.config&lt;/b&gt;-html-webpack-plugin" style="stroke: #000000; stroke-width: 1.0;"/><polygon fill="#000000" points="518.691,165.43,510.9611,159.3269,513.8466,164.1925,508.981,167.078,518.691,165.43" style="stroke: #000000; stroke-width: 1.0;"/><!--link <b>webpack.config</b> to mini-css-extract-plugin--><path d="M444.291,145.97 C451.983,149.59 459.323,154.33 465,160.5 C480.419,177.26 463.516,193.78 480,209.5 C487.323,216.48 496.19,221.73 505.64,225.66 " fill="none" id="&lt;b&gt;webpack.config&lt;/b&gt;-mini-css-extract-plugin" style="stroke: #000000; stroke-width: 1.0;"/><polygon fill="#000000" points="510.322,227.48,503.3897,220.484,505.6635,225.6638,500.4838,227.9376,510.322,227.48" style="stroke: #000000; stroke-width: 1.0;"/><!--link <b>webpack.config</b> to terser-webpack-plugin--><path d="M445.731,145.63 C453.105,149.28 459.959,154.1 465,160.5 C493.635,196.83 449.047,229.12 480,263.5 C487.658,272.01 497.586,278 508.289,282.2 " fill="none" id="&lt;b&gt;webpack.config&lt;/b&gt;-terser-webpack-plugin" style="stroke: #000000; stroke-width: 1.0;"/><polygon fill="#000000" points="513.257,284.01,506.1633,277.1777,508.5574,282.303,503.4321,284.6971,513.257,284.01" style="stroke: #000000; stroke-width: 1.0;"/><!--link <b>webpack.config</b> to webpack--><path d="M445.992,145.43 C453.34,149.09 460.119,153.98 465,160.5 C486.008,188.55 457.199,290.88 480,317.5 C496.252,336.47 523.792,343.08 546.727,345.01 " fill="none" id="&lt;b&gt;webpack.config&lt;/b&gt;-webpack" style="stroke: #000000; stroke-width: 1.0;"/><polygon fill="#000000" points="551.845,345.38,543.1498,340.7546,546.8575,345.027,542.5851,348.7346,551.845,345.38" style="stroke: #000000; stroke-width: 1.0;"/><!--link <b>webpack.config</b> to webpack-bundle-analyzer--><path d="M446.45,145.5 C453.659,149.15 460.27,154.02 465,160.5 C492.718,198.47 449.855,335.43 480,371.5 C485.345,377.9 491.973,382.89 499.287,386.78 " fill="none" id="&lt;b&gt;webpack.config&lt;/b&gt;-webpack-bundle-analyzer" style="stroke: #000000; stroke-width: 1.0;"/><polygon fill="#000000" points="503.925,389.06,497.6136,381.4991,499.4381,386.8537,494.0835,388.6782,503.925,389.06" style="stroke: #000000; stroke-width: 1.0;"/><script type="text/plantuml"><![CDATA[
@startuml

scale max 1920 width
left to right direction

skinparam nodesep 20
skinparam ranksep 39
skinparam monochrome true
skinparam shadowing false
skinparam defaultFontName Tahoma
skinparam defaultFontSize 12
skinparam roundCorner 6
skinparam dpi 150
skinparam arrowColor black
skinparam arrowThickness 0.5
skinparam packageTitleAlignment left

skinparam usecase {
  borderThickness 0.5
}

skinparam rectangle {
  borderThickness 0.5
}

skinparam component {
  borderThickness 1
}


(actionTypes)
rectangle "AddForm" as _AddForm
(<b>AddForm</b>)
rectangle "App" as _App
(<b>App</b>)
(<b>babel.config</b>)
rectangle "Button" as _Button
(<b>Button</b>)
rectangle "Card" as _Card
(<b>Card</b>)
(cards)
rectangle "Column" as _Column
(<b>Column</b>)
(Columns)
(colums)
(<b>container</b>)
(reducer)
(reducers)
(reorderCards)
(<b>src</b>)
(store)
(<b>webpack.config</b>)

package "Dependencies" {
  [@babel]
  [@fortawesome]
  [autoprefixer]
  [html-webpack-plugin]
  [linaria]
  [mini-css-extract-plugin]
  [prop-types]
  [react]
  [react-beautiful-dnd]
  [react-dom]
  [react-hot-loader]
  [react-redux]
  [redux]
  [terser-webpack-plugin]
  [webpack]
  [webpack-bundle-analyzer]
}

_AddForm ----> [@fortawesome]
_AddForm ----> [linaria]
_AddForm ----> [prop-types]
_AddForm ----> [react]
(<b>AddForm</b>) -[thickness=1]> _AddForm
_App ----> [linaria]
_App ----> [react]
_App ----> [react-hot-loader]
(<b>App</b>) -[thickness=1]> _App
(<b>babel.config</b>) --[thickness=1]> [@babel]
(<b>babel.config</b>) --[thickness=1]> [react-hot-loader]
_Button ----> [linaria]
_Button ----> [prop-types]
_Button ----> [react]
(<b>Button</b>) -[thickness=1]> _Button
_Card ----> [linaria]
_Card ----> [prop-types]
_Card ----> [react]
_Card ----> [react-beautiful-dnd]
(<b>Card</b>) -[thickness=1]> _Card
(cards) --> (actionTypes)
_Column ----> [linaria]
_Column ----> [prop-types]
_Column ----> [react]
_Column ----> [react-beautiful-dnd]
(<b>Column</b>) -[thickness=1]> _Column
(Columns) ---> (cards)
(Columns) ---> (colums)
(Columns) ----> [react]
(Columns) ----> [react-beautiful-dnd]
(Columns) ----> [react-redux]
(colums) --> (actionTypes)
(<b>container</b>) -[thickness=1]> (Columns)
(reducer) --> (actionTypes)
(reducer) ---> (reorderCards)
(reducers) --> (reducer)
(reducers) ----> [redux]
(<b>src</b>) ---[thickness=1]> [react]
(<b>src</b>) ---[thickness=1]> [react-dom]
(<b>src</b>) ---[thickness=1]> [react-redux]
(<b>src</b>) -[thickness=1]> (store)
(store) --> (reducers)
(store) ----> [redux]
(<b>webpack.config</b>) --[thickness=1]> [autoprefixer]
(<b>webpack.config</b>) --[thickness=1]> [html-webpack-plugin]
(<b>webpack.config</b>) --[thickness=1]> [mini-css-extract-plugin]
(<b>webpack.config</b>) --[thickness=1]> [terser-webpack-plugin]
(<b>webpack.config</b>) --[thickness=1]> [webpack]
(<b>webpack.config</b>) --[thickness=1]> [webpack-bundle-analyzer]

@enduml


' View and edit on https://arkit.pro
]]></script></g></svg>